<?xml version="1.0" encoding="UTF-8"?>
<svg width="1200pt" height="1200pt" version="1.1" viewBox="0 0 1200 1200" xmlns="http://www.w3.org/2000/svg">
 <path d="m392.26 373.26h381.14v-290.44h-675.28v675.28h259.78v-350.53c0-18.938 15.375-34.312 34.359-34.312zm449.76 0h294.1c18.938 0 34.312 15.375 34.312 34.312v743.9c0 18.938-15.375 34.312-34.312 34.312h-743.9c-18.984 0-34.359-15.375-34.359-34.312v-324.71h-294.1c-18.938 0-34.359-15.375-34.359-34.312v-743.9c0-18.984 15.375-34.359 34.359-34.359h743.9c18.984 0 34.359 15.375 34.359 34.359zm-290.06 431.34c-13.406-13.406-13.406-35.156 0-48.516 13.406-13.406 35.156-13.406 48.516 0l100.5 100.5 226.78-226.78c13.406-13.406 35.156-13.406 48.516 0 13.406 13.406 13.406 35.156 0 48.516l-251.06 251.06c-13.406 13.406-35.156 13.406-48.516 0z" fill="#9CA3AF" fill-rule="evenodd"/>
</svg>
