<?xml version="1.0" encoding="UTF-8"?>
<svg width="1200pt" height="1200pt" version="1.1" viewBox="0 0 1200 1200" xmlns="http://www.w3.org/2000/svg">
 <path d="m186.66 911.75c-0.14453 1.1172-0.32422 2.1953-0.61328 3.2773l-9.8633 52.418 104.15-59.148c7.3438-4.1406 15.984-3.8164 22.789 0.10938l103.97 59.039-9.8633-52.379c-0.28906-1.0781-0.46875-2.1602-0.61328-3.3125l-24.121-128.41c-23.832 13.68-51.41 21.457-80.855 21.457-29.449 0-57.023-7.8125-80.855-21.457l-24.121 128.41zm-50.402 20.34h-89.281c-12.672 0-22.934-10.262-22.934-22.969v-720.8c0-12.672 10.262-22.934 22.934-22.934h1106.1c12.672 0 22.934 10.262 22.934 22.934v720.8c0 12.672-10.262 22.969-22.934 22.969h-705.97l14.184 75.383c0.97266 5.1484 0.17969 10.621-2.5938 15.516-6.2266 10.98-20.195 14.832-31.211 8.6055l-135.79-77.113-135.32 76.859c-4.6094 2.7734-10.262 3.9258-15.984 2.8789-12.422-2.3398-20.594-14.293-18.289-26.711l14.184-75.383zm302.19-45.902h691.6v-674.9h-1060.1v674.9h74.953l25.488-135.61c-25.812-28.801-41.473-66.852-41.473-108.54 0-44.93 18.215-85.645 47.664-115.09 29.449-29.449 70.164-47.664 115.09-47.664 44.93 0 85.609 18.215 115.09 47.664 29.449 29.484 47.664 70.164 47.664 115.09 0 41.688-15.66 79.742-41.473 108.54l25.488 135.61zm-64.152-326.77c-21.133-21.133-50.363-34.199-82.621-34.199s-61.488 13.066-82.656 34.199c-21.133 21.133-34.238 50.363-34.238 82.656 0 32.258 13.066 61.488 34.238 82.621 21.133 21.133 50.363 34.199 82.656 34.199 32.258 0 61.488-13.066 82.621-34.199 21.133-21.133 34.199-50.363 34.199-82.621 0-32.258-13.066-61.488-34.199-82.656zm208.59 37.477c-12.672 0-22.934-10.262-22.934-22.969 0-12.672 10.262-22.934 22.934-22.934h398.38c12.672 0 22.934 10.262 22.934 22.934s-10.262 22.969-22.934 22.969zm0-160.34c-12.672 0-22.934-10.262-22.934-22.934s10.262-22.969 22.934-22.969h398.38c12.672 0 22.934 10.297 22.934 22.969s-10.262 22.934-22.934 22.934z" fill="#fff"/>
</svg>
